<svg xmlns="http://www.w3.org/2000/svg" version="1.1" xmlns:xlink="http://www.w3.org/1999/xlink" viewBox="0 0 200 200"><rect width="200" height="200" fill="url('#gradient')"></rect><defs><linearGradient id="gradient" gradientTransform="rotate(33 0.5 0.5)"><stop offset="0%" stop-color="#000000"></stop><stop offset="100%" stop-color="#ffffff"></stop></linearGradient></defs><g><g fill="#d86321" transform="matrix(3.532958053386599,0,0,3.532958053386599,3.410061133612473,122.9632507845129)" stroke="#c8512e" stroke-width="0.2"><path d="M9.08-7.79L3.74-5.95L9.08-4.15L9.08-1.15L0.45-4.67L0.45-7.27L9.08-10.78L9.08-7.79ZM18.99-14.22L22.42-14.22L22.42-4.91Q22.42-3.33 21.75-2.17Q21.07-1.02 19.81-0.41Q18.55 0.20 16.84 0.20L16.84 0.20Q14.24 0.20 12.74-1.15Q11.25-2.50 11.22-4.84L11.22-4.84L11.22-14.22L14.67-14.22L14.67-4.78Q14.73-2.44 16.84-2.44L16.84-2.44Q17.90-2.44 18.45-3.03Q18.99-3.61 18.99-4.93L18.99-4.93L18.99-14.22ZM36.45-14.22L36.45 0L33.04 0L33.04-5.94L27.99-5.94L27.99 0L24.56 0L24.56-14.22L27.99-14.22L27.99-8.57L33.04-8.57L33.04-14.22L36.45-14.22ZM44.45-14.22L39.59 1.22L37.26 1.22L42.11-14.22L44.45-14.22ZM45.64-4.13L50.96-5.98L45.64-7.78L45.64-10.77L54.23-7.26L54.23-4.66L45.64-1.14L45.64-4.13Z"></path></g></g></svg>